<svg width="128" height="128" viewBox="0 0 128 128" fill="none" xmlns="http://www.w3.org/2000/svg">
<path d="M117.5 58C117.5 72.7738 111.512 86.1481 101.83 95.8302C92.1481 105.512 78.7738 111.5 64 111.5C49.2262 111.5 35.8519 105.512 26.1698 95.8302C16.4876 86.1481 10.5 72.7738 10.5 58C10.5 43.2262 16.4876 29.8519 26.1698 20.1698C35.8519 10.4876 49.2262 4.5 64 4.5C78.7738 4.5 92.1481 10.4876 101.83 20.1698C111.512 29.8519 117.5 43.2262 117.5 58Z" fill="#F87608" stroke="#F87608"/>
<g clip-path="url(#clip0_60_438)">
<path d="M67.3206 20L67.0506 21.34C67.0506 21.34 68.3406 21.96 68.3406 24.79C68.3406 26.09 67.2706 27.58 66.3706 28.2L71.0406 36.38L71.8706 21.52L67.3206 20ZM73.8706 47.17C71.0406 43.67 72.6206 40.42 72.6206 40.42C72.6206 40.42 72.2406 40.39 71.6006 40.39L64.6406 28.56C64.6406 28.56 61.5606 28.12 61.3906 25C61.2106 21.87 62.4406 21.52 62.4406 21.52L62.1806 20.18L57.7106 21.7L58.1606 40.38C57.0406 40.37 56.3406 40.42 56.3406 40.42C56.3406 40.42 57.9206 43.67 55.0906 47.17C52.2506 50.67 43.9206 63.92 44.0006 76.17C44.0906 88.42 53.4206 84.58 54.0006 77.5C54.5906 70.42 52.0906 57.25 61.3406 50.75C64.2506 47.42 62.3406 42.08 62.3406 42.08C62.3406 42.08 62.1106 41.74 61.6806 41.37L62.2606 39.81H67.2306L67.6006 41.12C66.9706 41.58 66.6206 42.08 66.6206 42.08C66.6206 42.08 64.7006 47.42 67.6206 50.75C76.8706 57.25 74.3706 70.42 74.9506 77.5C75.5406 84.58 84.8706 88.42 84.9506 76.17C85.0406 63.92 76.7006 50.67 73.8706 47.17ZM64.1506 36.85C63.0406 36.85 62.1506 35.95 62.1506 34.83C62.1506 33.72 63.0406 32.81 64.1506 32.81C65.2606 32.81 66.1606 33.72 66.1606 34.83C66.1606 35.95 65.2606 36.85 64.1506 36.85Z" fill="#434544"/>
</g>
<defs>
<clipPath id="clip0_60_438">
<rect width="128" height="128" fill="white"/>
</clipPath>
</defs>
</svg>
