<svg width="128" height="128" viewBox="0 0 128 128" fill="none" xmlns="http://www.w3.org/2000/svg">
<path d="M117.5 70C117.5 84.7738 111.512 98.1481 101.83 107.83C92.1481 117.512 78.7738 123.5 64 123.5C49.2262 123.5 35.8519 117.512 26.1698 107.83C16.4876 98.1481 10.5 84.7738 10.5 70C10.5 55.2262 16.4876 41.8519 26.1698 32.1698C35.8519 22.4876 49.2262 16.5 64 16.5C78.7738 16.5 92.1481 22.4876 101.83 32.1698C111.512 41.8519 117.5 55.2262 117.5 70Z" fill="#F87608" stroke="#F87608"/>
<g clip-path="url(#clip0_63_439)">
<path d="M38.868 70.732L36 67.944L64.134 39L91.868 67.533L88.999 70.321L64.134 44.739L38.868 70.732ZM83.034 69.14V88.87H44.634V69.14L63.934 49.38L83.034 69.14ZM73.034 85.87V76.54C73.034 73.83 71.954 71.36 70.214 69.57C68.474 67.78 66.074 66.67 63.434 66.67C58.154 66.67 53.834 71.11 53.834 76.54V85.87H73.034Z" fill="#434544"/>
</g>
<defs>
<clipPath id="clip0_63_439">
<rect width="128" height="128" fill="white"/>
</clipPath>
</defs>
</svg>
