<svg width="128" height="128" viewBox="0 0 128 128" fill="none" xmlns="http://www.w3.org/2000/svg">
<path d="M117.5 66C117.5 80.7738 111.512 94.1481 101.83 103.83C92.1481 113.512 78.7738 119.5 64 119.5C49.2262 119.5 35.8519 113.512 26.1698 103.83C16.4876 94.1481 10.5 80.7738 10.5 66C10.5 51.2262 16.4876 37.8519 26.1698 28.1698C35.8519 18.4876 49.2262 12.5 64 12.5C78.7738 12.5 92.1481 18.4876 101.83 28.1698C111.512 37.8519 117.5 51.2262 117.5 66Z" fill="#F87608" stroke="#F87608"/>
<path d="M64 57.611C54.062 57.611 43.5 54.875 43.5 49.805C43.5 44.735 54.062 42 64 42C73.938 42 84.5 44.736 84.5 49.806C84.5 54.876 73.938 57.611 64 57.611ZM64 44C53.412 44 45.5 47.065 45.5 49.806C45.5 52.547 53.412 55.612 64 55.612C74.588 55.612 82.5 52.547 82.5 49.806C82.5 47.065 74.588 44 64 44ZM64 59.69C52.41 59.69 43 56.65 43 52.89V78.19C43 81.95 52.41 85 64 85C75.59 85 85 81.95 85 78.19V52.89C85 56.65 75.59 59.69 64 59.69ZM73.12 72C73.12 73.38 72.01 74.5 70.62 74.5C69.24 74.5 68.12 73.38 68.12 72H59.12C59.12 73.38 58.01 74.5 56.62 74.5C55.24 74.5 54.12 73.38 54.12 72C54.12 71.18 54.53 70.45 55.14 70C54.53 69.55 54.12 68.82 54.12 68C54.12 66.62 55.24 65.5 56.62 65.5C58.01 65.5 59.12 66.62 59.12 68H68.12C68.12 66.62 69.24 65.5 70.62 65.5C72.01 65.5 73.12 66.62 73.12 68C73.12 68.82 72.73 69.54 72.12 70C72.73 70.46 73.12 71.18 73.12 72Z" fill="#434544"/>
</svg>
